<svg width="21.65" height="22" fill="none" xmlns="http://www.w3.org/2000/svg"><g clip-path="url(#a)"><mask id="b" style="mask-type:luminance" maskUnits="userSpaceOnUse" x="0" y="0" width="22" height="22"><path d="M21.575 0H0v22h21.575V0z" fill="#fff"/></mask><g mask="url(#b)"><path d="M21.36 9H11v4.26h5.92c-.26 1.37-1.04 2.53-2.21 3.31-.98.66-2.23 1.06-3.71 1.06-2.86 0-5.29-1.93-6.16-4.53h-.013l.013-.01c-.22-.66-.35-1.36-.35-2.09 0-.73.13-1.43.35-2.09.87-2.6 3.3-4.53 6.16-4.53 1.62 0 3.06.56 4.21 1.64l3.15-3.15C16.45 1.09 13.97 0 11 0 6.7 0 2.99 2.47 1.18 6.07.43 7.55 0 9.22 0 11c0 1.78.43 3.45 1.18 4.93v.01C2.99 19.53 6.7 22 11 22c2.97 0 5.46-.98 7.28-2.66 2.08-1.92 3.28-4.74 3.28-8.09 0-.78-.07-1.53-.2-2.25z" fill="#F89F1B"/><mask id="c" style="mask-type:luminance" maskUnits="userSpaceOnUse" x="0" y="0" width="22" height="22"><path d="M21.36 9H11v4.26h5.92c-.26 1.37-1.04 2.53-2.21 3.31-.98.66-2.23 1.06-3.71 1.06-2.86 0-5.29-1.93-6.16-4.53h-.013l.013-.01c-.22-.66-.35-1.36-.35-2.09 0-.73.13-1.43.35-2.09.87-2.6 3.3-4.53 6.16-4.53 1.62 0 3.06.56 4.21 1.64l3.15-3.15C16.45 1.09 13.97 0 11 0 6.7 0 2.99 2.47 1.18 6.07.43 7.55 0 9.22 0 11c0 1.78.43 3.45 1.18 4.93v.01C2.99 19.53 6.7 22 11 22c2.97 0 5.46-.98 7.28-2.66 2.08-1.92 3.28-4.74 3.28-8.09 0-.78-.07-1.53-.2-2.25z" fill="#fff"/></mask><g mask="url(#c)"><path d="M2.646 23.041c4.283 0 7.755-4.687 7.755-10.469 0-5.781-3.472-10.468-7.755-10.468-4.283 0-7.755 4.687-7.755 10.468 0 5.782 3.472 10.47 7.755 10.47z" fill="url(#d)"/><path d="M16.021 33.661c8.64-1.079 14.98-7.27 14.16-13.826-.819-6.557-8.486-10.998-17.126-9.919-8.64 1.08-14.979 7.27-14.16 13.826.82 6.557 8.487 10.998 17.126 9.92z" fill="url(#e)"/><path d="m10.105 7.28.49 5.596.624 3.747 7.362 6.848 8.607-15.897-17.083-.294z" fill="url(#f)"/></g></g></g><defs><radialGradient id="d" cx="0" cy="0" r="1" gradientUnits="userSpaceOnUse" gradientTransform="matrix(7.7553 0 0 10.4685 2.646 12.572)"><stop offset=".368" stop-color="#F89F1B"/><stop offset=".718" stop-color="#F89F1B" stop-opacity=".7"/><stop offset="1" stop-color="#F89F1B" stop-opacity="0"/></radialGradient><radialGradient id="e" cx="0" cy="0" r="1" gradientUnits="userSpaceOnUse" gradientTransform="rotate(-7.12 182.393 -105.955) scale(15.765 11.9651)"><stop offset=".383" stop-color="#F89F1B"/><stop offset=".706" stop-color="#F89F1B" stop-opacity=".7"/><stop offset="1" stop-color="#F89F1B" stop-opacity="0"/></radialGradient><linearGradient id="f" x1="22.558" y1="5.286" x2="11.148" y2="19.299" gradientUnits="userSpaceOnUse"><stop offset=".671" stop-color="#F89F1B"/><stop offset=".885" stop-color="#F89F1B" stop-opacity="0"/></linearGradient><clipPath id="a"><path fill="#fff" d="M0 0h22v22H0z"/></clipPath></defs></svg>