<svg width="504" height="202" fill="none" xmlns="http://www.w3.org/2000/svg"><g clip-path="url(#a)"><path d="M364.797 14.037 359.929 0h-80.125v14.037h84.993zm9.288 26.802-4.867-14.04h-89.414v14.04h94.281zm59.614 160.81h69.95v-14.04h-69.95v14.04zm0-26.805h69.95v-14.037h-69.95v14.037zm0-26.799h41.969v-14.041h-41.969v14.041zm0-26.802h41.969v-14.038h-41.969v14.038zm0-26.8h41.969v-14.04h-80.007l-3.935 11.346-3.931-11.346h-80.011v14.04h41.973V81.543l4.514 12.901h74.914l4.514-12.901v12.901zm41.969-40.839h-70.719l-4.867 14.034h75.586V53.604zm-167.884 67.639h41.973v-14.038h-41.973v14.038zm0 26.802h41.973v-14.041h-41.973v14.041zm-27.98 26.799h69.95v-14.037h-69.95v14.037zm0 26.805h69.95v-14.04h-69.95v14.04zM423.523-.001l-4.864 14.038h84.99V0h-80.126zM409.37 40.84h94.279V26.8h-89.414l-4.865 14.04zm-101.586 26.8h75.59l-4.868-14.035h-70.722v14.034zm55.859 53.604h56.166l4.911-14.038h-65.988l4.911 14.038zm9.379 26.802h37.409l4.911-14.041h-47.231l4.911 14.041zm9.375 26.799h18.658l4.911-14.034h-28.48l4.911 14.034zm9.308 26.805 4.883-14.04h-9.723l4.84 14.04zm-279.785-.14 103.021.14c13.989 0 26.536-5.32 36.036-14.04H111.92v13.9zm109.38-67.505v14.041h47.057c0-4.86-.663-9.561-1.869-14.041H221.3zm-81.399 14.041h41.969v-14.041h-41.969v14.041zM221.3 67.638h45.188a53.854 53.854 0 0 0 1.869-14.034H221.3v14.034zm-81.399 0h41.969V53.601h-41.969v14.037zM214.941 0H111.92v14.037h139.057C241.477 5.32 228.828 0 214.941 0zm46.254 26.799H111.92v14.04h154.903a53.66 53.66 0 0 0-5.628-14.04zM139.901 80.403v14.04h109.606a53.87 53.87 0 0 0 11.673-14.04H139.901zm109.606 26.802H139.901v14.038H261.18a53.803 53.803 0 0 0-11.673-14.038zM111.92 174.844h149.275a53.54 53.54 0 0 0 5.628-14.034H111.92v14.034zM-.003 14.037h97.934V0H-.003v14.037zm0 26.802h97.934V26.8H-.003v14.04zm27.984 26.802h41.97V53.604H27.98v14.037zm0 26.802h41.97v-14.04H27.98v14.04zm0 26.8h41.97v-14.038H27.98v14.038zm0 26.802h41.97v-14.041H27.98v14.041zM-.003 174.844h97.934v-14.037H-.003v14.037zm0 26.805h97.934v-14.04H-.003v14.04z" fill="#F89F1B"/></g><defs><clipPath id="a"><path fill="#fff" d="M0 0h503.65v201.65H0z"/></clipPath></defs></svg>