<svg width="459" height="123" fill="none" xmlns="http://www.w3.org/2000/svg"><g clip-path="url(#a)"><path d="M38.19 100.52c0-5.9-4.17-9.55-11.11-9.72H0v31.4h4.5v-11.43h21.7c4 0 6.25 1.91 6.25 5.21v6.22h4.69v-6.25a7.782 7.782 0 0 0-4.69-7.29 8.299 8.299 0 0 0 5.73-8.16l.01.02zm-11.28 6.25H4.69v-11.8h22.22c6.08 0 6.6 4.51 6.6 5.9 0 1.39-.52 5.9-6.6 5.9zm91-9.72c-2.26-4.69-5-6.6-9.2-6.6-4.2 0-6.94 1.91-9.2 6.6l-12 24.48-.35.69h4.86l.17-.35 4.17-8.68h24.65l4.17 8.68.17.35h4.86l-.35-.69-11.95-24.48zm-19.3 12.15 5.38-10.94c1.22-2.6 2.6-3.65 4.86-3.65 2.08 0 3.47 1 4.86 3.65l5.39 10.94H98.61zm79.51-2.6c0 10.59 4.69 15.63 14.58 15.8h24.65v-4.51h-24.29c-7.47 0-10.24-3.13-10.24-11.28 0-8.15 2.78-11.28 10.24-11.28h24.31V90.8h-24.66c-10.24.17-14.58 5-14.58 15.8h-.01zm90.8 15.8h4.51V90.97h-4.51v31.43zm93.75-4.51c-4.34 0-5.38-1.39-13.19-12l-.35-.52c-8.51-11.28-10.76-14.41-18.23-14.41h-3.82v31.44h4.51V95.49c4.17 0 5 1.39 12.85 11.46l.87 1.22c8.51 11.11 10.94 14.24 18.06 14.24h3.82V90.97h-4.51l-.01 26.92zm91.67-11.81v11.81h-20c-7.47 0-10.24-3.13-10.24-11.28 0-8.15 2.78-11.28 10.24-11.28h24.16V90.8h-24.47c-9.9.17-14.58 5-14.58 15.63s4.69 15.63 14.58 15.8h24.83v-16.15h-4.52z" fill="url(#b)"/><path d="M197.75 32.64v19.44a6.083 6.083 0 0 1-6.075 5.834 6.079 6.079 0 0 1-6.075-5.834V32.64h-10.77V54.2c0 7.29 7.47 13.19 16.84 13.19 9.2 0 16.84-5.9 16.84-13.19V32.64h-10.76zM232.5 9.55v56.42h10.76V9.55H232.5zm-18.23 56.6H225V9.55h-10.76l.03 56.6zm-52.6-29.34a14.233 14.233 0 0 0 4.69-10.42 14.577 14.577 0 0 0-3.82-9.72c-2.6-2.78-7.12-4.34-13.19-4.34H130.9v53.82h23.79c9-.17 16.49-6.94 16.49-15.45-.34-6.25-2.25-10.59-9.55-13.89h.04zm-9.2 20h-10.28V21.53h7.12a6.09 6.09 0 0 1 5.73 6.08 5.779 5.779 0 0 1-5.73 5.73h-3.81v9.72h6.77a6.824 6.824 0 0 1 4.833 2.057A6.809 6.809 0 0 1 159.04 50c0 3.82-2.26 6.42-6.6 6.77l.03.04zM35.94 28.13a16.08 16.08 0 0 0-16.15-16H.17v53.82h11.46V21.53h5.87a7.23 7.23 0 0 1 7.47 7.12c0 3.82-3.47 7.12-7.64 7.12h-2.6v12.85l11.46 17.71h13.19l-15.8-22.57a16.32 16.32 0 0 0 12.33-15.63h.03zm20.14 3.13a17.75 17.75 0 0 0-17.71 18.06 18 18 0 0 0 17.71 18.06c7.47 0 13.37-3.47 16.32-8.68l-8.68-4a7.24 7.24 0 0 1-6.77 4.17 7 7 0 0 1-7.29-6.77v-.35h23.79c0-.69.17-1.56.17-2.26-.18-11.81-7.82-18.24-17.54-18.24v.01zm-6.42 14.06a6.602 6.602 0 0 1 6.595-6.857 6.6 6.6 0 0 1 6.595 6.857H49.66zm66.32 20.83V9.72h-10.77v26.74a15.233 15.233 0 0 0-10.76-4.51c-8.85 0-16.15 7.81-16.15 17.53 0 9.72 7.29 17.53 16.32 17.53a15.39 15.39 0 0 0 10.94-4.69v3.82l10.42.01zm-18.23-8.33c-4.34 0-7.81-3.82-7.81-8.68 0-4.69 3.47-8.68 7.81-8.68s7.81 3.82 7.81 8.68c0 4.86-3.65 8.67-7.82 8.67l.01.01zM362.16 73.62c20.33 0 36.81-16.48 36.81-36.81C398.97 16.48 382.49 0 362.16 0c-20.33 0-36.81 16.48-36.81 36.81 0 20.33 16.48 36.81 36.81 36.81z" fill="#F89F1B"/><path d="M458.34 61.46c0-.17-.17-.17-.17-.35a1.311 1.311 0 0 0-.17-.69 6.16 6.16 0 0 0-.35-1.74 3.007 3.007 0 0 0-2.26-1.74 1.331 1.331 0 0 0-.35-.87 7.35 7.35 0 0 0-2.26-1.91c-.17-.17-.35-.35-.52-.35l-.17-.17a2.8 2.8 0 0 0-1.56-.52 3.299 3.299 0 0 0-2.6 1.39 3.218 3.218 0 0 1-.35-1.22 5.38 5.38 0 0 1-.35-1.39v-.17a3.513 3.513 0 0 0-2.6-2.6c-.52 0-1-.17-1.39-.17a6.573 6.573 0 0 1-1.39-.17.54.54 0 0 1 .17-.35c.188-.304.307-.645.35-1 .474-1.454.594-3 .35-4.51.35 0 .87.17 1.39.17a12.882 12.882 0 0 0 4.34-.87 8.558 8.558 0 0 0 5-7.81v-.22c-.35-3.13-2.08-6.08-5.38-9a8.183 8.183 0 0 0 2.6-1c2.43-1.56 3.47-4.51 2.78-7.81v-.17a2.161 2.161 0 0 0-2.08-1.91 1.999 1.999 0 0 0-1.39.52l-.17.17-.52.52a5.856 5.856 0 0 1-2.08.69c-.52.17-1.22.35-1.91.52-3 1-4.86 2.6-5.56 4.69-.52 1.22-.17 2.78.52 4.34v.17a16.53 16.53 0 0 0 3.3 3.65c1.56 1.56 3.13 3 3.47 4.69 0 .35.17.87-.87 1.74a4.146 4.146 0 0 1-1.56.35 8.172 8.172 0 0 1-2.78-.69c-1.22-.69-2.6-1.56-3.82-2.43a30.465 30.465 0 0 0-6.6-3.65 12.742 12.742 0 0 0-3.47-.87 9.068 9.068 0 0 1-3.47-1.22l-.17-.17a5.274 5.274 0 0 1-1.22-.87 12.127 12.127 0 0 0-4.17-2.26 7.631 7.631 0 0 0-1.74-.35c-.69-.17-1-.17-1.22-.35-.35-.17-.52-.35-.87-.52a23.854 23.854 0 0 0-3.47-2.26 27.806 27.806 0 0 0-6.42-2.08c-.17 0-.35-.35-.69-.69a10.275 10.275 0 0 0-1.39-1.39 9.75 9.75 0 0 0-6.25-2.6h-.69a7.94 7.94 0 0 0-3.82 1.91c-1.91 1.74-4 3.13-6.08 4.69a54.966 54.966 0 0 0-9.2 7.81c-3 3.13-4 6.94-5 10.24a5.042 5.042 0 0 0-.35 1.56c-.17.87-.52 1.91-.69 2.78-1.22 4.69-2.26 9.2-6.6 12a2.462 2.462 0 0 0-1 2.08 2.688 2.688 0 0 0 1.39 1.91 3.74 3.74 0 0 0 1.69.26 1.575 1.575 0 0 0 .52 1.22 2.475 2.475 0 0 0 1.91.87c3 0 5.21-1.74 6.94-3.47a6.256 6.256 0 0 0 2.63 1.38h.69a8.7 8.7 0 0 1 3-.17c.87.35 1.74.69 2.78 1 .69.17 1.39.52 2.08.69l.35.17h.35a4.284 4.284 0 0 0 3.47-2.43v-.26c0-.17.17-.35.17-.52l.17.35a6.853 6.853 0 0 0 1 2.6 2.798 2.798 0 0 0 2.26 1h1l.17.17a5 5 0 0 0 1.74 1.22c.785.31 1.599.54 2.43.69 1.022.207 2.025.498 3 .87h.17c.732.255 1.49.43 2.26.52a4.48 4.48 0 0 0 2.78-1 5 5 0 0 0 1.74-2.78.639.639 0 0 0 .52-.17c1.39-.52 2.6-3 2.6-3 .17-.17.17-.35.35-.52.326-.456.507-1 .52-1.56a2.592 2.592 0 0 0-2.26-2.43h-3.47a1.57 1.57 0 0 0-.87.17c-.17-.17-.35-.69-.69-.87h2.26a35.788 35.788 0 0 0 4.51-.52 26.875 26.875 0 0 1 3.82-.17h.35a6.514 6.514 0 0 1 1.74.17c.52 0 1.22.17 1.91.17h.69a7.384 7.384 0 0 0 1.91-.35c0 .35.17.69.17 1.22l.17.35a8.121 8.121 0 0 0 3.3 5.21l.35.17a10.06 10.06 0 0 0 3.65 1.56h1.86a8.269 8.269 0 0 1 6.6 1.56l.17.17.52.52c.541.44 1.113.84 1.71 1.2a5.07 5.07 0 0 0 1.56.35c.725 0 1.44-.178 2.08-.52 0 .17.17.17.17.35a9.5 9.5 0 0 0 1.22 1.56 4.61 4.61 0 0 0 3.3 1.22h2.26c.35 0 .52 0 .52-.17.362.237.787.36 1.22.35h.52l2.08-.69a3.09 3.09 0 0 0 1.39-1.22c.35-2.43 0-3.3-.52-4l.04.03zm-66.15-10.42-.17-.17c0-.17-.17-.17-.17-.35-.258-.39-.489-.798-.69-1.22.69 0 1.22.17 1.91.17l-.88 1.57zm-31.25 2.78-1-.52a7.506 7.506 0 0 1-2.26-2.78l-1-1.56a8.046 8.046 0 0 0-1.22-1.22l-.17-.17a43.422 43.422 0 0 1-2.78-11.11 10.001 10.001 0 0 0-1.39-4 78.663 78.663 0 0 0-6.6-8.51l-.52-.52-.17-.17-7.81-6.42-.17-.17a11.79 11.79 0 0 0-3.47-1.91 10.05 10.05 0 0 0-6.77.17h-.17a7.179 7.179 0 0 0-1.91 1.22 8.359 8.359 0 0 1-2.78 1.39h-.35a10 10 0 0 1-2.43.87 13.51 13.51 0 0 0-5.73 2.78l-1 1c-.35.35-.87.69-1 .87h-.35a10.22 10.22 0 0 0-7.29 2.6 13.882 13.882 0 0 1-4 2.78 6.48 6.48 0 0 1-2.08.35c-.943.073-1.875.247-2.78.52-2.26.52-4.34 2.26-6.08 3.47a8.697 8.697 0 0 1-1.39 1c-.17.17-.35.17-.52.35-1.91 1-3.47 2.08-5.56 2.08h-.17a3.249 3.249 0 0 1-2.43-1.74 3.432 3.432 0 0 1 1-3.47 12.018 12.018 0 0 1 2.26-1.91 21.858 21.858 0 0 0 3.47-3.47 5.511 5.511 0 0 0-.35-6.94c-1.22-1.39-3.47-2.08-5.21-2.6h-.69a.639.639 0 0 1-.52-.17c-.35 0-.69-.17-1-.17a5.222 5.222 0 0 1-1.91-1l-1.56-1-1.39-.69-.87 1.39a5.225 5.225 0 0 0-.87 3.65v.11a8.326 8.326 0 0 0 4.69 6.08c2.43 1 .17 0 .17.17a5.07 5.07 0 0 0 1.56.35 24.127 24.127 0 0 0-3.65 3.65c-2.26 2.43-2.26 6.25-1.39 8.85a9.234 9.234 0 0 0 7.64 5.73c.52 0 1 .17 1.56.17a13.398 13.398 0 0 0 2.6-.35c0 1.22.17 2.08.17 2.6a16.448 16.448 0 0 0 1 3.13 8.299 8.299 0 0 1-1.91.87c-.52 0-1 .17-1.39.17h-.69a2.59 2.59 0 0 0-1.56.69 8.748 8.748 0 0 0-1.39 2.6c-.145.474-.318.938-.52 1.39-.17.17-.35.52-.52.69a4.005 4.005 0 0 0-1.22-1.22 2.35 2.35 0 0 0-3 0c-.17.17-.35.17-.35.35h-.25c-.52.35-1.22.87-1.91 1.39a2.338 2.338 0 0 0-.87 1.56.642.642 0 0 0-.52.17 4.591 4.591 0 0 0-2.43 3c0 .52-.17 1.22-.17 1.56l-.17.17a2.382 2.382 0 0 0 0 3.13 7.608 7.608 0 0 0 3.47 1.22h.69a.61.61 0 0 0 .35-.17h.56c.35 0 .69.17 1 .17.677.2 1.375.318 2.08.35a4.812 4.812 0 0 0 2.26-.52 5.001 5.001 0 0 0 2.26-2.43c.17-.17.17-.52.35-.69h.17a2.57 2.57 0 0 0 1.22.17 6.74 6.74 0 0 0 4.51-1.74c.35-.35.69-.52.87-.87.35-.35.69-.52.87-.87a2.57 2.57 0 0 1 1.22-.17c.876.031 1.747.149 2.6.35a7.62 7.62 0 0 0 4.86-.52 22.175 22.175 0 0 0 2.08-1.22h.17a3.78 3.78 0 0 0 .87-.52c1.39-.69 2.43-2.43 3.13-3.65a8.916 8.916 0 0 0 .87-2.08h.35c.935-.03 1.866-.148 2.78-.35a5.358 5.358 0 0 1 1.56-.17h.52c.87 0 2.08.17 3 .17.69 0 1.22.17 2.26.17h1.56a5.8 5.8 0 0 0 2.58-.53c.17.17.52.69.69.87h-.17a3.078 3.078 0 0 0-1.74.69 3.71 3.71 0 0 0-2.43-.17 8.817 8.817 0 0 0-3 .52 2.512 2.512 0 0 0-1.74 1.22 2.133 2.133 0 0 0 .17 2.26c.52.87 1 1.74 1.56 2.78l.17.35a2.344 2.344 0 0 0 2.08 1h.52a.17.17 0 0 0 .17.17 6.585 6.585 0 0 0 1.74 2.26 5.48 5.48 0 0 0 3.3 1.22 4.809 4.809 0 0 0 1.56-.17 47.574 47.574 0 0 0 6.94-2.6h1a4.611 4.611 0 0 0 3.3-1.22l.17-.17v-.17c.35-.52.87-1.22 1.22-1.74v.17a3.54 3.54 0 0 0 3.47 2.26 9.688 9.688 0 0 0 4-1c.17 0 .35-.17.52-.17h.17a6.75 6.75 0 0 1 3.82-.17h.35a7.632 7.632 0 0 0 4-1.74 9.829 9.829 0 0 0 7.47 3.13h1a2.207 2.207 0 0 0 1.74-1.91v-.52a.639.639 0 0 0 .52-.17 2.218 2.218 0 0 0 1.74-1.91c1.22-1.22.87-2.08 0-2.43l.13-.02zm-26-5a.61.61 0 0 1-.35.17 15.62 15.62 0 0 0-1.56 1.74c-.265-.445-.496-.91-.69-1.39a8.605 8.605 0 0 0 2.26-.69c.35.17.35 0 .35.17h-.01z" fill="#F89F1B"/></g><defs><linearGradient id="b" x1="229.292" y1="88.528" x2="229.292" y2="121.32" gradientUnits="userSpaceOnUse"><stop offset="1" stop-color="#F89F1B"/></linearGradient><clipPath id="a"><path fill="#fff" d="M0 0h459v122.4H0z"/></clipPath></defs></svg>