<svg width="43.52" height="43.52" fill="none" xmlns="http://www.w3.org/2000/svg"><g clip-path="url(#a)" fill="#F89F1B"><path d="m37.262 33.13-9.176-5.3a2.696 2.696 0 0 0-4.031 2.598v10.358a2.686 2.686 0 0 0 5.37 0V34.83l5.141 2.97a2.696 2.696 0 0 0 2.696-4.669zM14.441 21.77a2.642 2.642 0 0 0-1.316-2.327l-9.176-5.297a2.632 2.632 0 0 0-1.312-.352c-.942 0-1.817.504-2.285 1.317a2.637 2.637 0 0 0 .964 3.597l5.29 3.051-5.29 3.055A2.602 2.602 0 0 0 .09 26.41c-.184.68-.09 1.391.262 2a2.641 2.641 0 0 0 3.597.965l9.176-5.297a2.648 2.648 0 0 0 1.316-2.308zM6.031 10.392l9.176 5.297c1.07.62 2.39.418 3.234-.406a2.675 2.675 0 0 0 .868-1.977V2.689a2.687 2.687 0 1 0-5.372 0v6.043l-5.21-3.008a2.696 2.696 0 1 0-2.696 4.668zM26.664 22.2c0 .204-.117.485-.262.633l-3.636 3.637c-.145.145-.43.262-.633.262h-.926c-.203 0-.488-.117-.633-.262l-3.64-3.637a1.041 1.041 0 0 1-.262-.632v-.926c0-.207.117-.489.262-.633l3.64-3.64c.145-.145.43-.262.633-.262h.926c.203 0 .488.117.633.261l3.636 3.64c.145.145.262.427.262.634v.926zm-3.246-.445v-.039a.771.771 0 0 0-.191-.465l-1.075-1.07a.735.735 0 0 0-.465-.195h-.039a.753.753 0 0 0-.464.195l-1.07 1.07a.752.752 0 0 0-.192.465v.04c0 .151.086.358.191.464l1.07 1.074a.77.77 0 0 0 .465.192h.04c.152 0 .359-.086.464-.192l1.075-1.074a.752.752 0 0 0 .191-.465zM28.086 15.689l9.176-5.297a2.696 2.696 0 1 0-2.696-4.668l-5.14 2.969V2.689a2.687 2.687 0 1 0-5.371 0v10.406a2.696 2.696 0 0 0 4.031 2.594zM17.047 27.517a2.673 2.673 0 0 0-1.84.312L6.031 33.13a2.691 2.691 0 0 0-.988 3.68 2.693 2.693 0 0 0 3.684.988l5.21-3.008v5.996a2.686 2.686 0 0 0 5.372 0V30.17c0-1.34-.98-2.449-2.262-2.652zM42.996 15.08a2.692 2.692 0 0 0-3.684-.989l-9.175 5.297a2.699 2.699 0 0 0-1.348 2.383 2.69 2.69 0 0 0 1.348 2.36l9.175 5.3a2.697 2.697 0 1 0 2.695-4.672l-5.195-3 5.196-3a2.688 2.688 0 0 0 .988-3.68z"/></g><defs><clipPath id="a"><path fill="#fff" d="M0 0h43.36v43.47H0z"/></clipPath></defs></svg>