<svg width="423" height="370" fill="none" xmlns="http://www.w3.org/2000/svg"><path d="M-.004 264.232H101.61v30.922H72.459v74.315H30.117v-74.315H-.004v-30.922zM153.072 306.752l-21.394 62.717H91.015l39.881-105.237h44.161l40.842 105.237h-41.163l-21.664-62.717zM206.185 264.232h101.61v30.922h-29.142v74.315h-42.34v-74.315h-30.128v-30.922zM359.275 306.752l-21.402 62.717H297.21l39.894-105.237h44.148l40.828 105.237h-41.148l-21.657-62.717z" fill="#F89F1B"/><path fill-rule="evenodd" clip-rule="evenodd" d="M360.774 70.932c-3.794-7.461-8.791-14.612-15.007-21.318-13.969-15.077-33.678-27.623-57.002-36.276C265.249 4.618 238.427.004 211.17.004c-27.257 0-54.079 4.614-77.583 13.334-23.336 8.654-43.046 21.2-57.015 36.276-6.212 6.705-11.225 13.866-15.018 21.331 30.365-7.343 82.306-17.038 130.534-18.063 4.652-.1 7.855 1.39 9.964 4.063 2.569 3.255 2.376 14.858 2.313 20.049l-1.371 134.17c2.716.09 5.445.148 8.176.148 2.754 0 5.498-.045 8.214-.135l-1.371-134.184c-.071-5.19-.27-16.794 2.308-20.049 2.114-2.672 5.306-4.162 9.957-4.063 48.208 1.017 100.137 10.714 130.496 18.051z" fill="#F89F1B"/><path fill-rule="evenodd" clip-rule="evenodd" d="M367.257 88.38c-44.442-10.047-74.121-11.905-103.405-13.53-25.526-1.419-25.859 7.696-23.311 25.115.167 1.063.372 2.403.615 3.931 8.562 50.712 19.224 94.352 21.056 101.759 62.23-14.225 107.109-53.664 107.109-99.994 0-5.834-.705-11.614-2.064-17.281zM181.823 99.965c2.551-17.418 2.224-26.534-23.299-25.115-29.294 1.625-58.98 3.482-103.44 13.536-1.357 5.667-2.071 11.44-2.071 17.274 0 20.024 8.146 39.4 23.56 56.047 13.969 15.077 33.679 27.623 57.015 36.282 8.446 3.127 17.359 5.69 26.54 7.74 1.723-6.939 12.63-51.487 21.285-103.106.16-.989.308-1.902.41-2.658z" fill="#F89F1B"/></svg>