<svg width="255" height="253" fill="none" xmlns="http://www.w3.org/2000/svg"><g clip-path="url(#a)" fill="#F89F1B"><path d="m127.35 252.502 35.476-199.519c33.815 0 44.481 3.708 46.021 18.843 0 0 22.684-8.458 34.125-25.636-44.646-20.688-89.505-21.621-89.505-21.621l-26.176 31.882.059-.004-26.176-31.883s-44.86.934-89.5 21.622c11.43 17.178 34.124 25.636 34.124 25.636C47.347 56.686 58 52.978 91.588 52.954l35.762 199.548z"/><path d="M127.336 15.36c36.09-.276 77.399 5.583 119.687 24.014 5.652-10.173 7.105-14.669 7.105-14.669C207.901 6.416 164.61.157 127.331 0 90.054.157 46.765 6.417.544 24.705c0 0 2.062 5.538 7.1 14.669C49.924 20.943 91.24 15.084 127.33 15.36h.005z"/></g><defs><clipPath id="a"><path fill="#fff" d="M0 0h255v253H0z"/></clipPath></defs></svg>