<?xml version="1.0" encoding="utf-8" ?>
<svg xmlns="http://www.w3.org/2000/svg" xmlns:xlink="http://www.w3.org/1999/xlink" width="1024" height="1024">
	<path fill="#212021" d="M451.735 2.8595C469.355 2.96511 487.097 3.46484 504.706 2.94828L506.771 2.99123C530.296 3.09724 553.821 3.06085 577.345 2.88207L761.195 3.17426C779.427 3.22732 797.908 2.6302 816.1 3.57587C874.564 6.61501 923.284 24.0299 964.987 66.099C994.151 95.5196 1012.67 134.702 1020.37 175.122C1021.66 181.888 1022.52 188.898 1023.15 195.758C1023.44 199.027 1023.39 202.474 1024 205.693L1024 822.375C1023.97 822.529 1023.94 822.683 1023.92 822.837C1023.35 826.332 1023.35 829.894 1023.06 833.42C1022.43 840.878 1021.59 848.384 1020.16 855.733C1010.2 906.718 982.67 952.096 940.547 982.904C927.098 992.74 909.704 1003.08 893.765 1007.98L891.537 1007.52C871.669 1014.83 849.809 1018.66 828.735 1020.11C817.305 1020.9 805.634 1020.47 794.179 1020.48L734.387 1020.4L573.305 1020.45L324.401 1020.44L249.016 1020.4C234.782 1020.42 220.422 1020.84 206.199 1020.38C155.6 1018.75 106.172 1003.04 67.9604 969.015C62.2621 963.941 56.023 956.206 50.685 950.527L49.3018 951.087C22.792 921.361 8.15847 883.096 2.64408 844.063C1.20685 833.89 1.63368 823.455 0.0817283 813.385L0 812.888L0 205.251C1.52102 199.073 1.67735 186.675 2.74847 179.215C6.27081 154.681 15.0266 128.801 27.736 107.497C32.0998 97.3071 46.0078 77.759 54.5634 70.4084C55.3124 69.3839 56.243 68.5184 57.135 67.6201C63.049 61.6635 68.9061 55.6963 75.3792 50.3348C111.481 20.4322 155.631 6.5278 201.991 3.69562C211.563 3.11083 221.316 3.45155 230.914 3.41087L283.787 3.20312L397.13 2.91775C415.267 2.89987 433.627 3.55376 451.735 2.8595Z"/>
	<path fill="#010101" d="M761.195 3.17426C779.427 3.22732 797.908 2.6302 816.1 3.57587C874.564 6.61501 923.284 24.0299 964.987 66.099C994.151 95.5196 1012.67 134.702 1020.37 175.122C1021.66 181.888 1022.52 188.898 1023.15 195.758C1023.44 199.027 1023.39 202.474 1024 205.693L1024 822.375C1023.97 822.529 1023.94 822.683 1023.92 822.837C1023.35 826.332 1023.35 829.894 1023.06 833.42C1022.43 840.878 1021.59 848.384 1020.16 855.733C1010.2 906.718 982.67 952.096 940.547 982.904C927.098 992.74 909.704 1003.08 893.765 1007.98L891.537 1007.52C904.045 1002.64 915.995 997.021 927.471 990.019C940.434 982.11 951.656 972.722 962.367 961.974C989.03 935.222 1007.1 903.585 1015.96 866.765C1019.24 853.127 1021.53 838.846 1022.31 824.839C1022.68 818.247 1022.42 811.526 1022.4 804.917L1022.33 769.309L1022.32 685.552L1022.24 428.234L1022.29 271.083L1022.18 230.578C1022.2 217.135 1022.42 203.997 1020.88 190.608C1017.49 159.324 1007.26 129.169 990.906 102.282C955.311 44.3449 895.902 10.5937 828.305 6.30073C818.204 5.65919 807.865 4.7327 797.765 4.53018C787.472 4.3238 771.344 5.73049 761.613 3.28743C761.473 3.25232 761.335 3.21198 761.195 3.17426Z"/>
	<path fill="#010101" d="M27.736 107.497C27.7191 107.679 27.7052 107.862 27.6851 108.045C26.7993 116.081 20.3334 124.646 17.277 132.248C9.94489 150.486 4.84506 170.435 3.02286 189.998C1.34177 208.047 1.74796 225.894 1.75534 243.994L1.76368 314.716L1.76333 546.597L1.76075 736.762L1.70849 789.236C1.68324 807.154 1.48703 825.258 4.09845 843.039C9.73329 881.407 22.5875 914.812 46.6018 945.495C47.9318 947.197 49.2931 948.875 50.685 950.527L49.3018 951.087C22.792 921.361 8.15847 883.096 2.64408 844.063C1.20685 833.89 1.63368 823.455 0.0817283 813.385L0 812.888L0 205.251C1.52102 199.073 1.67735 186.675 2.74847 179.215C6.27081 154.681 15.0266 128.801 27.736 107.497Z"/>
	<path fill="#010101" d="M54.5634 70.4084C55.3124 69.3839 56.243 68.5184 57.135 67.6201C63.049 61.6635 68.9061 55.6963 75.3792 50.3348C111.481 20.4322 155.631 6.5278 201.991 3.69562C211.563 3.11083 221.316 3.45155 230.914 3.41087L283.787 3.20312C283.638 3.23451 283.489 3.26778 283.339 3.29729C270.793 5.7672 253.857 4.46643 240.807 4.45164C206.398 4.41266 172.034 6.15609 139.081 16.9618C118.438 23.7311 99.4391 34.1868 81.9595 47.0532C76.064 51.3928 70.7806 56.6163 65.5406 61.7121C63.0255 64.158 59.9935 67.9023 57.0284 69.6475C56.2153 70.1261 55.4693 70.2244 54.5634 70.4084Z"/>
	<path fill="#FEA114" d="M520.009 188.214C535.278 186.82 554.467 187.663 569.905 188.701C629.039 192.675 688.344 206.463 738.745 238.717C795.643 275.129 831.684 333.859 846.621 398.996C851.96 422.279 853.705 446.366 864.216 468.182C879.534 499.977 913.641 524.054 921.101 558.749C931.607 607.614 918.786 657.826 892.006 699.156C859.655 749.084 810.621 785.124 757.453 810.436C739.698 818.888 721.047 826.498 702.149 832.006C646.596 848.196 579.163 853.144 521.619 846.111C504.563 844.027 487.222 841.341 470.589 837.003C462.028 834.771 453.531 831.108 444.913 829.344C442.154 828.779 439.296 828.489 436.527 829.166C433.889 829.811 431.679 831.289 430.39 833.718C429.309 835.754 429.044 837.965 429.818 840.156C431.513 844.947 437.032 847.581 441.246 849.752C468.145 863.437 496.741 873.494 526.284 879.661C576.231 889.846 646.184 887.998 694.82 872.488C703.336 886.519 713.187 899.353 720.962 913.886C731.878 933.959 738.708 957.042 744.711 978.979C710.904 979.391 677.051 978.495 643.227 978.466L393.261 978.423L267.162 978.433C238.848 978.434 210.32 979.489 182.128 976.557C199.098 927.001 222.005 879.402 243.541 831.689C249.988 817.406 257.168 803.253 262.976 788.717C267.58 790.223 272.849 792.458 277.715 792.435C281.749 792.416 285.929 790.802 288.663 787.782C291.707 784.418 292.257 779.737 290.305 775.667C288.018 770.898 269.421 752.969 264.363 747.217C258.467 740.51 253.133 732.819 248.087 725.447C228.198 696.391 214.069 665.203 204.045 631.505C200.873 620.841 197.915 610.074 196.015 599.1C193.786 586.22 192.966 573.146 192.188 560.116C188.455 497.649 205.63 422.761 233.169 366.665C246.357 339.782 263.066 314.775 282.854 292.302C289.509 284.865 296.967 278.155 304.262 271.357C367.023 212.883 435.859 192.866 520.009 188.214Z"/>
	<path fill="#212021" d="M447.989 349.71C465.16 348.759 481.879 355.13 495.308 365.578C518.181 383.373 531.177 409.773 534.557 438.243C538.325 469.977 530.286 504.377 510.279 529.673C496.367 547.263 479.801 556.8 457.585 559.437C438.023 560.143 420.273 554.601 405.249 541.804C383.348 523.149 371.516 493.802 369.469 465.534C367.148 433.489 375.637 400.072 396.982 375.461C410.37 360.027 427.663 351.239 447.989 349.71Z"/>
	<path fill="#FEF0CC" d="M478.992 394.134C483.809 393.831 488.077 394.319 492.4 396.639C498.416 399.868 502.571 405.671 504.401 412.177C506.465 419.517 505.601 427.731 501.686 434.315C497.96 440.581 492.544 444.119 485.623 445.936C480.064 446.485 474.909 445.601 470.183 442.455C464.404 438.608 460.771 432.251 459.453 425.521C457.993 418.064 459.437 410.129 463.808 403.856C467.495 398.563 472.679 395.285 478.992 394.134Z"/>
	<path fill="#212021" d="M774.428 352.156C783.905 351.079 793.266 354.128 801.289 359.019C822.793 372.127 835.731 398.366 841.442 422.076C848.445 451.147 846.416 484.246 830.483 510.166C821.764 524.349 809.818 533.34 793.616 537.159C780.927 538.755 769.868 536.499 759.312 529.014C739.291 514.817 728.266 490.216 724.232 466.627C719.015 436.121 724.475 399.458 742.635 373.943C750.634 362.704 760.578 354.443 774.428 352.156Z"/>
	<path fill="#FEF0CC" d="M799.571 393.047C801.807 392.941 803.728 392.924 805.841 393.75C811.186 395.841 814.888 400.376 817.086 405.558C820.212 412.931 820.363 422.66 817.204 430.038C814.996 435.193 811.621 438.456 806.45 440.516C804.353 440.812 802.577 440.725 800.563 439.987C795.62 438.175 792.273 434.062 790.142 429.381C786.614 421.635 786.046 411.912 789.189 403.946C791.253 398.713 794.476 395.333 799.571 393.047Z"/>
	<path fill="#212021" d="M417.826 646.58C432.897 645.983 442.716 659.12 452.633 668.445C458.069 673.555 464.013 678.376 470.034 682.783C514.937 715.649 571.583 727.627 625.924 732.894C645.601 734.802 665.745 736.203 685.515 735.107C702.422 734.17 719.206 730.677 735.915 728.062C756.853 724.785 777.381 721.395 797.392 714.171C808.01 710.338 818.73 705.477 828.917 700.603C840.616 695.005 852.506 689.335 864.032 683.417C868.023 681.368 871.656 677.536 876.252 676.953C879.087 676.593 881.933 677.251 884.137 679.123C885.41 680.204 886.153 681.607 886.239 683.283C886.599 690.279 875.318 700.696 870.667 705.636C865.251 711.326 859.768 717.08 853.607 721.973C840.208 732.616 823.083 740.12 807.196 746.333C778.286 757.639 749.667 762.597 719.01 765.903C706.523 767.25 693.892 768.793 681.341 769.275C618.207 771.703 549.816 761.047 491.855 735.611C465.164 723.898 417.895 697.955 407.455 669.776C405.648 664.898 405.042 659.432 407.371 654.604C409.547 650.092 413.243 648.057 417.826 646.58Z"/>
	<path fill="#212021" d="M664.93 589.055C670.47 588.559 675.688 590.333 680.444 593.058C689.695 598.358 698.072 607.846 700.778 618.315C701.948 622.84 701.903 627.85 699.354 631.914C696.634 636.252 692.258 637.962 687.491 638.978C681.134 639.183 675.611 638.267 669.881 635.468C661.446 631.347 654.19 624.351 651.294 615.249C649.59 609.894 649.542 603.293 652.283 598.262C655.058 593.171 659.625 590.71 664.93 589.055Z"/>
	<path fill="#212021" d="M814.721 589.65C817.729 589.537 820.863 590.243 823.442 591.816C826.843 593.891 828.665 597.304 829.405 601.139C831.057 609.7 827.983 618.246 823.109 625.195C818.455 631.833 812.461 637.22 804.243 638.648C800.37 638.587 797.612 638.322 794.333 636.072C790.43 633.395 788.504 629.07 787.861 624.496C786.745 616.155 789.061 607.719 794.278 601.116C799.504 594.441 806.341 590.732 814.721 589.65Z"/>
	<path fill="#FEF0CC" d="M301.767 47.2481C424.468 46.6919 547.171 46.7599 669.871 47.4522C704.604 47.3869 739.338 47.5447 774.069 47.9258C797.835 48.0315 822.293 46.6596 845.794 50.6549C874.415 55.5207 900.54 66.9048 923.063 85.3214C956.118 112.35 974.973 153.825 979.103 195.759C980.811 213.109 980.407 230.79 980.414 248.215L980.424 317.293L980.427 541.566L980.427 734.677L980.411 790.503C980.394 808.977 980.621 827.682 977.934 846.006C973.961 873.102 961.849 899.221 944.437 920.315C918.309 952.393 880.429 972.679 839.249 976.649C832.019 977.408 824.765 977.915 817.501 978.17C809.23 978.383 800.821 978.113 792.588 978.9C788.945 969.134 785.008 959.484 781.366 949.718C775.512 934.022 769.929 918.317 762.543 903.251C754.939 887.738 745.775 873.197 736.237 858.824C769.332 847.461 800.351 831.286 829.649 812.229C873.466 783.727 919.706 738.251 941.279 690.163C949.496 671.847 954.594 651.995 958.699 632.405C961.556 618.769 962.685 604.638 962.674 590.719C962.641 547.964 950.643 514.37 925.78 480.009C916.614 467.342 904.652 456.91 899.018 441.967C892.102 423.623 889.453 404.06 884.935 385.075C875.66 347.591 860.131 311.939 839 279.619C802.512 223.823 742.616 187.285 679.977 167.711C665.082 163.057 649.878 159.636 634.619 156.425C623.141 154.557 611.792 152.519 600.222 151.229C591.583 150.266 582.802 150.057 574.219 148.758C563.137 147.081 537.768 127.726 528.246 121.182C499.435 101.38 448.657 66.8437 413.958 61.2932C400.018 59.0635 384.791 60.908 373.144 69.3741C362.967 76.7712 355.08 87.2493 347.789 97.3675C326.973 126.254 309.944 158.98 304.165 194.475C292.737 192.53 280.654 191.901 269.074 191.503C241.746 190.562 216.255 191.803 189.289 196.429C181.728 197.726 173.823 198.423 166.995 202.17C155.455 208.503 148.237 219.71 144.694 232.152C142.315 240.506 141.541 249.378 141.816 258.04C142.877 291.453 159.579 353.367 176.123 383.003C145.604 391.862 104.897 412.865 82.471 435.55C73.2896 444.837 66.6439 455.709 66.8406 469.15C67.2623 497.971 102.415 540.317 120.088 562.202C134.342 579.852 145.06 593.434 161.602 609.342C146.1 621.288 133.865 637.357 121.895 652.694C115.831 660.464 109.481 668.289 104.643 676.906C102.222 681.145 100.386 685.693 99.1845 690.425C96.5789 701.132 98.5378 711.82 104.319 721.156C121.522 748.934 174.989 770.478 206.335 777.69C201.244 787.707 196.663 798.039 191.866 808.205L164.418 866.629C150.579 896.26 135.922 925.767 123.589 956.056C112.153 949.048 101.151 941.948 91.3909 932.639C55.408 898.316 44.9942 858.976 43.8977 810.889C42.7268 759.535 43.5133 708.025 43.5172 656.654L43.4897 390.421L43.5089 264.244L43.4429 227.964C43.4157 213.584 43.2243 199.573 45.7092 185.337C51.3392 153.082 65.5249 121.026 88.4354 97.2956C113.447 71.3883 151.033 54.1088 186.589 49.2942C201.747 47.2416 217.745 47.5774 233.051 47.5214C255.956 47.5956 278.862 47.5044 301.767 47.2481Z"/>
	<path fill="#010101" fill-opacity="0.98039216" d="M49.3018 951.087L50.685 950.527C56.023 956.206 62.2621 963.941 67.9604 969.015C106.172 1003.04 155.6 1018.75 206.199 1020.38C220.422 1020.84 234.782 1020.42 249.016 1020.4L324.401 1020.44L573.305 1020.45L734.387 1020.4L794.179 1020.48C805.634 1020.47 817.305 1020.9 828.735 1020.11C849.809 1018.66 871.669 1014.83 891.537 1007.52L893.765 1007.98C875.016 1015.53 853.601 1019.59 833.488 1021.06C798.8 1023.6 763.65 1022.38 728.878 1022.38L539.863 1021.62L332.2 1021.65C293.74 1021.82 255.199 1023.11 216.746 1021.96C205.359 1021.63 193.777 1021.22 182.469 1019.85C140.088 1014.73 98.8827 998.704 66.9622 969.87C60.6366 964.156 55.1467 957.309 49.3018 951.087Z"/>
	<path fill="#010101" fill-opacity="0.011764706" d="M506.771 2.99123C507.672 2.21164 508.356 1.59251 509.568 1.42308C516.441 0.462759 524.518 1.59943 531.499 1.58372C544.171 1.55519 557.058 0.550483 569.699 1.46616C572.136 1.64274 574.486 2.23057 576.912 2.45673L577.345 2.88207C553.821 3.06085 530.296 3.09724 506.771 2.99123Z"/>
	<path fill="#010101" fill-opacity="0.015686275" d="M451.735 2.8595C453.024 1.83848 454.144 1.66147 455.764 1.47911C465.986 0.329153 476.944 1.4226 487.249 1.46094C492.153 1.47919 497.577 0.757513 502.415 1.43817C503.595 1.60431 503.999 2.05978 504.706 2.94828C487.097 3.46484 469.355 2.96511 451.735 2.8595Z"/>
</svg>
